<?xml version="1.0" standalone="no"?>
<!DOCTYPE svg PUBLIC "-//W3C//DTD SVG 1.1//EN" "http://www.w3.org/Graphics/SVG/1.1/DTD/svg11.dtd" >
<!--
2013-9-30: Created.
-->
<svg>
<metadata>
Created by iconfont
</metadata>
<defs>

<font id="iconfont" horiz-adv-x="1024" >
  <font-face
    font-family="iconfont"
    font-weight="500"
    font-stretch="normal"
    units-per-em="1024"
    ascent="896"
    descent="-128"
  />
    <missing-glyph />
    
    <glyph glyph-name="fontsize" unicode="&#60239;" d="M411.52 752.512l2.56-5.568 224.576-617.6 99.008 296.768a32 32 0 0 0 58.368 5.44l2.304-5.44 128-384a32 32 0 0 0-58.368-25.536l-2.304 5.312-25.152 75.264a31.808 31.808 0 0 0-2.752-0.64L832 96h-128a32 32 0 0 0-8.512 1.152l-25.152-75.264a36.032 36.032 0 0 0-0.64-1.664l0.64 1.664a32.192 32.192 0 0 0-19.392-19.968l-1.664-0.576a32 32 0 0 0-3.2-0.768l4.864 1.344a32 32 0 0 0-15.424-1.6l-1.024 0.128a32 32 0 0 0-1.664 0.384l-2.944 0.832a34.432 34.432 0 0 0-3.392 1.28l3.392-1.28a32.192 32.192 0 0 0-17.472 14.144l-0.96 1.664a32.192 32.192 0 0 0-1.472 3.456v0.128L524.48 256H243.456L158.08 21.12a32 32 0 0 0-35.456-20.672l-5.568 1.472a32 32 0 0 0-20.608 35.456l1.472 5.568 256 704a32 32 0 0 0 57.6 5.568zM768 314.88l-51.648-154.816h103.232L768 314.816z m-384 327.68L266.752 320h234.496L384 642.496z"  horiz-adv-x="1024" />

    
    <glyph glyph-name="list-dot" unicode="&#60252;" d="M192 192a64 64 0 1 0 0-128 64 64 0 0 0 0 128z m704-32a32 32 0 0 0 5.76-63.488L896 96H384a32 32 0 0 0-5.76 63.488L384 160h512zM192 448a64 64 0 1 0 0-128 64 64 0 0 0 0 128z m704-32a32 32 0 0 0 5.76-63.488L896 352H384a32 32 0 0 0-5.76 63.488L384 416h512zM192 704a64 64 0 1 0 0-128 64 64 0 0 0 0 128z m704-32a32 32 0 0 0 5.76-63.488L896 608H384a32 32 0 0 0-5.76 63.488L384 672h512z"  horiz-adv-x="1024" />

    
    <glyph glyph-name="list-number" unicode="&#60253;" d="M215.552 544v192h-44.16l-41.024-35.584v-47.232l41.088 35.648V544zM250.496 288v39.552h-69.12l45.44 48.192a123.52 123.52 0 0 1 18.368 23.232 47.808 47.808 0 0 1 5.312 23.552c0 11.584-2.56 21.76-7.808 30.528a51.648 51.648 0 0 1-21.632 20.032 69.312 69.312 0 0 1-31.552 6.912c-11.392 0-21.76-2.304-31.04-6.848a53.376 53.376 0 0 1-22.208-20.032 57.536 57.536 0 0 1-8.256-31.104h43.776c0 6.72 1.728 11.456 5.184 14.208a19.456 19.456 0 0 0 12.544 4.224c5.504 0 9.728-1.6 12.672-4.8 2.944-3.2 4.48-7.488 4.48-12.8a22.528 22.528 0 0 0-2.176-10.24 45.76 45.76 0 0 0-7.488-10.048L128 327.552V288h122.496zM190.848 32c17.92 0 32.832 4.992 44.864 14.976 12.032 9.984 18.112 24.32 18.112 43.072a46.08 46.08 0 0 1-6.08 24.96 56.32 56.32 0 0 1-15.68 16.256 40.832 40.832 0 0 1 19.52 36.8 54.08 54.08 0 0 1-29.568 48.832 66.88 66.88 0 0 1-31.168 7.104c-8.576 0-16.512-1.28-23.808-3.84a58.432 58.432 0 0 1-19.328-11.392 50.816 50.816 0 0 1-13.056-17.984 58.944 58.944 0 0 1-4.608-23.808h43.52c0 5.44 1.728 9.792 4.992 12.992a17.024 17.024 0 0 0 12.288 4.8c4.8 0 8.96-1.6 12.288-4.736a17.28 17.28 0 0 0 5.056-13.312c0-3.072-0.64-6.016-1.92-8.64a15.616 15.616 0 0 0-6.016-6.592 19.008 19.008 0 0 0-10.24-2.56h-6.08v-37.632h6.144a19.2 19.2 0 0 0 20.224-19.968c0-6.656-1.792-11.648-5.376-15.04a19.648 19.648 0 0 0-14.08-5.056 19.456 19.456 0 0 0-13.888 5.12c-3.584 3.456-5.44 8.32-5.44 14.72H128a58.88 58.88 0 0 1 8.96-33.344 52.48 52.48 0 0 1 23.168-19.584c9.472-4.096 19.712-6.144 30.72-6.144zM896 160a32 32 0 0 0 5.76-63.488L896 96H384a32 32 0 0 0-5.76 63.488L384 160h512z m0 256a32 32 0 0 0 5.76-63.488L896 352H384a32 32 0 0 0-5.76 63.488L384 416h512z m0 256a32 32 0 0 0 5.76-63.488L896 608H384a32 32 0 0 0-5.76 63.488L384 672h512z"  horiz-adv-x="1024" />

    
    <glyph glyph-name="waiting" unicode="&#60251;" d="M512 768c211.776 0 384-172.224 384-384s-172.224-384-384-384-384 172.224-384 384 172.224 384 384 384z m164.8-192H346.688C332.16 576 320 566.272 320 554.56c0-11.712 12.096-21.376 26.688-21.376h26.24v-42.048c0-27.904 15.616-54.208 42.304-71.552l54.4-35.584-54.4-35.584c-27.2-17.792-42.304-43.648-42.304-71.552v-42.048h-26.24c-14.592 0-26.688-9.664-26.688-21.376 0-11.712 12.096-21.44 26.688-21.44h330.624c14.592 0 26.688 9.728 26.688 21.44 0 11.712-12.096 21.376-26.688 21.376h-25.728V276.48c0 27.904-15.616 54.144-42.304 71.552L554.24 384l54.4 35.584c27.264 17.792 42.368 43.648 42.368 71.552V533.12h25.728c14.592 0 26.688 9.664 26.688 21.376 0 11.712-12.096 21.44-26.688 21.44zM512 356.48l62.976-41.216c14.656-9.28 22.72-23.424 22.72-38.4v-42.048H425.856V276.48c0 14.976 8.512 29.12 22.656 38.4L512 356.48z m85.696 176.64v-41.984c0-14.976-8.576-29.12-22.72-38.4L512 411.456l-62.976 41.28c-14.656 9.664-23.168 23.808-23.168 38.784v41.6h171.84z"  horiz-adv-x="1024" />

    
    <glyph glyph-name="underline" unicode="&#60235;" d="M768 96a32 32 0 0 0 5.76-63.488L768 32H256a32 32 0 0 0-5.76 63.488L256 96h512z m0 640a32 32 0 0 0 31.488-26.24L800 704v-256a288 288 0 0 0-575.68-13.568L224 448V704a32 32 0 0 0 63.488 5.76L288 704v-256a224 224 0 0 1 447.68-12.288L736 448V704a32 32 0 0 0 32 32z"  horiz-adv-x="1024" />

    
    <glyph glyph-name="undo" unicode="&#60236;" d="M342.656 470.656a32 32 0 0 0 3.648-40.832l-3.648-4.48a32 32 0 0 0-40.832-3.648l-4.48 3.648-128 128a32 32 0 0 0-3.648 40.832l3.648 4.48 128 128a32 32 0 0 0 48.96-40.832l-3.648-4.48L269.248 608H576a288 288 0 0 0 13.568-575.68L576 32H192a32 32 0 0 0-5.76 63.488L192 96h384a224 224 0 0 1 12.288 447.68L576 544H269.248l73.408-73.344z"  horiz-adv-x="1024" />

    
    <glyph glyph-name="strikethrough" unicode="&#60237;" d="M725.12 288a192 192 0 0 0-169.792-255.68L544 32H320a32 32 0 0 0-5.76 63.488L320 96h224a128 128 0 0 1 110.912 192h70.144z m106.88 128a32 32 0 0 0 5.76-63.488L832 352H192a32 32 0 0 0-5.76 63.488L192 416h640z m-128 320a32 32 0 0 0 5.76-63.488L704 672H480a128 128 0 0 1-110.848-192H298.944a192 192 0 0 0 169.792 255.744l11.264 0.256H704z"  horiz-adv-x="1024" />

    
    <glyph glyph-name="font" unicode="&#60240;" d="M768 736a32 32 0 0 0 25.472-12.608l3.2-5.12 64-128a32 32 0 0 0-54.272-33.472l-3.008 4.864L748.16 672H544v-576H640a32 32 0 0 0 5.76-63.488L640 32H384a32 32 0 0 0-5.76 63.488L384 96h96v576H275.776l-55.168-110.336a32 32 0 0 0-37.568-16.384l-5.376 2.112a32 32 0 0 0-16.384 37.568l2.112 5.376 64 128a32 32 0 0 0 22.656 17.088L256 736h512z"  horiz-adv-x="1024" />

    
    <glyph glyph-name="italic" unicode="&#60241;" d="M672 704a32 32 0 1 0 0-64h-64v-2.048l-0.96-5.76L480.96 128H544a32 32 0 1 0 0-64h-192a32 32 0 1 0 0 64l64-0.064v2.112l0.96 5.76L542.976 640H480a32 32 0 0 0 0 64h192z"  horiz-adv-x="1024" />

    
    <glyph glyph-name="blod" unicode="&#60242;" d="M256.512 58.24L256 64V704a32 32 0 0 0 32 32H512a192 192 0 0 0 131.2-332.16 191.936 191.936 0 0 0-55.936-371.52L576 32H288a32 32 0 0 0-31.488 26.24zM320 96h256a128 128 0 0 1 9.6 255.68L576 352H320v-256z m0 320h192a128 128 0 0 1 9.6 255.68L512 672H320v-256z"  horiz-adv-x="1024" />

    
    <glyph glyph-name="align-center" unicode="&#60243;" d="M672 128a32 32 0 1 0 0-64h-320a32 32 0 1 0 0 64h320z m128 192a32 32 0 1 0 0-64h-576a32 32 0 0 0 0 64h576z m-64 192a32 32 0 1 0 0-64h-448a32 32 0 0 0 0 64h448z m128 192a32 32 0 1 0 0-64h-704a32 32 0 0 0 0 64h704z"  horiz-adv-x="1024" />

    
    <glyph glyph-name="link2" unicode="&#60244;" d="M384 608a32 32 0 0 0 5.76-63.488L384 544H320a160 160 0 0 1-10.496-319.68L320 224h64a32 32 0 0 0 5.76-63.488L384 160H320a224 224 0 0 0-12.288 447.68L320 608h64z m320 0l12.288-0.32A224 224 0 0 0 704 160h-64l-5.76 0.512A32 32 0 0 0 640 224h64l10.496 0.32A160 160 0 0 1 704 544h-64l-5.76 0.512A32 32 0 0 0 640 608h64z m0-192a32 32 0 0 0 5.76-63.488L704 352H320a32 32 0 0 0-5.76 63.488L320 416h384z"  horiz-adv-x="1024" />

    
    <glyph glyph-name="align-left" unicode="&#60245;" d="M480 128a32 32 0 1 0 0-64h-320a32 32 0 1 0 0 64h320z m256 192a32 32 0 1 0 0-64h-576a32 32 0 0 0 0 64h576z m-128 192a32 32 0 0 0 0-64h-448a32 32 0 0 0 0 64h448z m256 192a32 32 0 1 0 0-64h-704a32 32 0 0 0 0 64h704z"  horiz-adv-x="1024" />

    
    <glyph glyph-name="img" unicode="&#60246;" d="M704 704a128 128 0 0 0 128-128v-384a128 128 0 0 0-128-128H320a128 128 0 0 0-128 128V576a128 128 0 0 0 128 128z m64-263.104h1.28c-30.72-1.28-57.088-5.824-79.104-13.504a289.6 289.6 0 0 1-60.608-28.8c-18.368-11.712-35.2-24.256-50.624-37.632a636.16 636.16 0 0 0-53.632-41.984 337.536 337.536 0 0 0-60.928-33.728 202.88 202.88 0 0 0-80.192-15.04c-19.904 0-38.4 2.752-55.296 8.384a214.464 214.464 0 0 0-42.624 19.264A197.76 197.76 0 0 0 255.936 320L256 192a64 64 0 0 1 64-64h384a64 64 0 0 1 64 64V440.896zM704 640H320a64 64 0 0 1-64-64v-178.496c9.216 0 18.304-3.904 24.64-11.52 3.84-4.544 9.216-10.176 16.192-16.64 6.08-5.76 13.504-11.264 22.336-16.576 8.576-5.12 18.56-9.6 29.952-13.44 10.112-3.392 21.76-5.12 35.072-5.12 21.504 0 39.808 3.392 55.104 9.92 17.408 7.424 33.92 16.512 49.408 27.328 10.88 7.68 21.696 15.808 32.32 24.384l15.872 13.376c17.856 15.488 37.248 29.952 58.24 43.392a353.216 353.216 0 0 0 73.984 35.2c28.288 9.856 60.8 15.488 97.472 17.024H768V576a64 64 0 0 1-56.512 63.552L704 640zM384 576a64 64 0 1 0 0-128 64 64 0 0 0 0 128z"  horiz-adv-x="1024" />

    
    <glyph glyph-name="align-justify" unicode="&#60247;" d="M864 128a32 32 0 1 0 0-64h-704a32 32 0 1 0 0 64h704z m0 192a32 32 0 1 0 0-64h-704a32 32 0 0 0 0 64h704z m0 192a32 32 0 1 0 0-64h-704a32 32 0 0 0 0 64h704z m0 192a32 32 0 1 0 0-64h-704a32 32 0 0 0 0 64h704z"  horiz-adv-x="1024" />

    
    <glyph glyph-name="redo" unicode="&#60248;" d="M681.344 470.656a32 32 0 0 1-3.648-40.832l3.648-4.48a32 32 0 0 1 40.832-3.648l4.48 3.648 128 128a32 32 0 0 1 3.648 40.832l-3.648 4.48-128 128a32 32 0 0 1-48.96-40.832l3.648-4.48L754.816 608H448a288 288 0 0 1-13.568-575.68L448 32h384a32 32 0 0 1 5.76 63.488L832 96H448a224 224 0 0 0-12.288 447.68L448 544h306.816l-73.472-73.344z"  horiz-adv-x="1024" />

    
    <glyph glyph-name="align-right" unicode="&#60249;" d="M864 128a32 32 0 1 0 0-64h-320a32 32 0 1 0 0 64h320z m0 192a32 32 0 1 0 0-64h-576a32 32 0 0 0 0 64h576z m0 192a32 32 0 1 0 0-64h-448a32 32 0 0 0 0 64h448z m0 192a32 32 0 1 0 0-64h-704a32 32 0 0 0 0 64h704z"  horiz-adv-x="1024" />

    
    <glyph glyph-name="font-bg-color" unicode="&#60250;" d="M306.752 536.064c61.632 0 109.44-15.872 141.76-49.152 25.472-26.496 39.232-62.528 41.728-106.56l0.448-14.976v-259.712H357.44l-0.064 14.592-7.616-4.096c-19.84-9.152-41.6-15.232-64.96-18.112l-17.856-1.6-15.36-0.448c-45.12 0-82.432 11.904-108.928 35.264a120.064 120.064 0 0 0-46.656 97.472c0 50.752 21.632 91.84 62.464 118.72l5.312 3.584 5.568 3.392 8.512 4.608-76.992 6.4 7.04 35.2c9.6 47.488 34.816 84.352 73.216 106.496 32.064 19.84 73.984 28.928 125.632 28.928z m44.288-266.368l-42.88-1.152c-52.864-1.088-71.168-13.44-71.168-37.056 0-3.584 0.832-5.12 5.568-8.704 5.376-4.288 13.952-6.912 26.048-6.912 24.128 0 43.84 6.976 60.864 20.992a59.712 59.712 0 0 1 21.184 30.72l0.384 2.112zM651.008 672v-157.056l3.072 1.792c15.744 8.768 32.768 14.592 50.88 17.408l13.824 1.536 11.904 0.384c61.568 0 111.808-22.72 148.608-67.904 32.448-40.64 48.704-91.264 48.704-150.4 0-61.632-16.448-113.6-49.792-154.368-37.44-44.864-88.32-67.392-151.04-67.392-22.016 0-42.304 3.008-60.8 8.96l-13.568 5.12-6.72 3.136v-7.552H512.128V672h138.88z m62.72-259.264a49.728 49.728 0 0 1-43.392-21.12c-12.416-14.72-19.52-34.56-21.12-60.8l-0.32-11.648v-6.272c0-29.696 6.08-52.48 17.408-69.056 11.776-16.512 27.52-24.512 49.536-24.512 26.368 0 43.392 8.128 54.272 23.936 10.88 16.896 16.896 41.664 16.896 74.496 0 33.088-6.144 56.832-17.408 71.872-11.008 15.36-28.416 23.04-55.872 23.04zM251.648 128c32.512 0 60.8 6.208 84.8 17.28 21.12 10.304 38.848 24.832 52.992 42.752v-50.368h69.248V365.376c0 43.52-11.328 76.608-33.28 99.328-25.408 26.24-64.96 39.36-118.656 39.36-45.248 0-81.92-7.616-108.8-24.128-31.104-17.92-50.88-46.976-58.624-85.568l74.176-6.208a63.36 63.36 0 0 0 31.808 44.16c14.08 8.32 33.152 12.416 56.512 12.416 55.04 0 82.624-24.832 82.624-74.56v-14.464l-81.92-2.048c-53.76-1.408-96.128-11.776-125.76-32.448-32.512-21.376-48.768-52.48-48.768-92.48 0-29.632 11.328-53.76 34.56-72.448 21.248-18.624 50.944-28.288 89.088-28.288z m16.96 55.872c-19.072 0-34.624 4.864-45.952 13.824a40.064 40.064 0 0 0-17.664 33.792c0 44.16 33.92 67.648 102.464 68.992l76.992 2.112v-20.736c0-27.584-11.968-51.072-34.56-69.696a123.52 123.52 0 0 0-81.28-28.288z m458.56-55.872c53.696 0 95.36 18.624 126.464 55.872 28.224 34.56 42.368 79.36 42.368 133.888 0 52.48-14.08 95.936-41.664 130.432-30.4 37.248-71.36 55.872-123.648 55.872-45.248 0-81.92-20.672-111.68-62.784V640h-74.88v-502.4h69.952v42.88c25.472-34.56 62.912-52.48 113.088-52.48z m-11.328 59.328c-32.512 0-57.92 13.12-75.584 37.952-15.552 22.784-23.36 51.776-23.36 87.68v6.208c0 38.592 9.216 69.632 28.992 93.12 16.96 22.08 39.552 32.448 67.84 32.448 36.736 0 64.256-11.776 81.92-36.608 15.552-20.672 23.36-51.008 23.36-90.368 0-39.36-7.808-69.696-21.952-91.776-17.664-25.536-44.48-38.656-81.28-38.656z"  horiz-adv-x="1024" />

    
    <glyph glyph-name="alipay" unicode="&#60232;" d="M277.568 768h468.48a150.72 150.72 0 0 0 149.504-149.312v-375.296c-55.552 19.2-175.232 60.16-258.752 87.936 28.416 49.408 50.752 102.016 66.688 156.8H555.776V541.44h181.888v24.128H555.776v88.32H473.728v-88.32H291.904v-24.128h181.824v-53.568h-158.08v-28.544h294.848a216.32 216.32 0 0 0-42.752-108.16c-149.568 40.32-263.68 65.28-339.072 3.84-75.456-61.44-36.352-257.728 179.456-214.208a320.576 320.576 0 0 1 187.2 128L896 138.688A150.784 150.784 0 0 0 746.432 0H277.568A150.72 150.72 0 0 0 128 149.312V618.688A150.72 150.72 0 0 0 277.568 768z m252.16-469.312c-141.056 75.904-221.824 68.48-264.128 42.624-46.592-27.264-67.328-90.88-17.92-132.224 15.04-11.008 32.448-18.304 50.816-21.376 135.68-29.632 231.04 110.976 231.04 110.976h0.192z"  horiz-adv-x="1024" />

    
    <glyph glyph-name="clock" unicode="&#60233;" d="M512 64c-176.448 0-320 143.552-320 320s143.552 320 320 320 320-143.552 320-320-143.552-320-320-320M512 768C300.224 768 128 595.776 128 384s172.224-384 384-384 384 172.224 384 384-172.224 384-384 384m32-377.856V576a32 32 0 0 1-64 0v-199.104c0-8.448 3.392-16.64 9.344-22.592l107.328-107.328a31.936 31.936 0 0 1 45.248 0 32 32 0 0 1 0 45.248L544 390.144z"  horiz-adv-x="1024" />

    
    <glyph glyph-name="clock-fill" unicode="&#60234;" d="M512 768c211.776 0 384-172.224 384-384s-172.224-384-384-384-384 172.224-384 384 172.224 384 384 384z m0-160a32 32 0 0 1-32-32v-199.104c0-8.448 3.392-16.64 9.344-22.592l107.328-107.328a31.936 31.936 0 0 1 45.248 0 32 32 0 0 1 0 45.248L544 390.144V576a32 32 0 0 1-32 32z"  horiz-adv-x="1024" />

    
    <glyph glyph-name="404" unicode="&#60231;" d="M845.12 92.15999999999997a27.456 27.456 0 0 0-26.048 18.816l-119.616 357.632V469.76L612.224 730.304A54.848 54.848 0 0 1 560 768H490.048a54.848 54.848 0 0 1-51.968-37.44l-207.104-619.584a27.456 27.456 0 0 0-26.048-18.816H174.08a45.952 45.952 0 0 1-46.08-46.08 45.952 45.952 0 0 1 46.08-46.08h675.84a45.952 45.952 0 0 1 46.08 46.08 45.952 45.952 0 0 1-46.08 46.08h-4.8zM503.232 699.456h46.464a14.784 14.784 0 0 0 13.76-10.176 14.976 14.976 0 0 0-10.304-19.456l-52.288-13.76a13.696 13.696 0 0 0-16.32 17.28l5.376 16.512a13.696 13.696 0 0 0 13.312 9.6zM438.912 509.632l149.12 39.872a27.456 27.456 0 0 0 33.664-17.664l16.32-48.64a27.456 27.456 0 0 0-18.88-35.264l-185.472-50.24a27.456 27.456 0 0 0-33.152 35.136l19.456 58.24a27.456 27.456 0 0 0 18.944 18.56z m-92.288-277.76l318.848 85.632c14.08 3.776 28.608-4.032 33.152-17.856l24.832-74.624a27.456 27.456 0 0 0-18.752-35.072l-361.28-96.832a25.536 25.536 0 0 0-7.104-0.96h-11.136a27.456 27.456 0 0 0-26.048 36.096l28.544 85.824a27.456 27.456 0 0 0 18.944 17.856z"  horiz-adv-x="1024" />

    
    <glyph glyph-name="welcome" unicode="&#60230;" d="M699.712 469.888c51.84 0 93.888-41.728 93.888-93.184V76.8H605.888v82.944a187.776 187.776 0 0 0-187.776 0V76.8H230.4V376.704c0 51.456 42.048 93.184 93.888 93.184s93.824-41.728 93.824-93.184A93.568 93.568 0 0 1 512 283.584c51.84 0 93.824 41.6 93.888 93.056 0 51.52 41.984 93.248 93.824 93.248zM324.288 691.2c51.84 0 93.824-41.728 93.824-93.12 0-51.456-41.984-93.184-93.824-93.184-51.84 0-93.888 41.728-93.888 93.184 0 51.392 42.048 93.12 93.888 93.12z m375.424 0c51.84 0 93.888-41.728 93.888-93.12 0-51.456-42.048-93.184-93.888-93.184s-93.824 41.728-93.824 93.184c0 51.392 41.984 93.12 93.824 93.12z"  horiz-adv-x="1024" />

    
    <glyph glyph-name="warning" unicode="&#60167;" d="M512 768c211.776 0 384-172.224 384-384s-172.224-384-384-384-384 172.224-384 384 172.224 384 384 384z m0-544a32 32 0 1 1 0-64 32 32 0 0 1 0 64z m0 384a32 32 0 0 1-32-32v-256a32 32 0 0 1 64 0V576a32 32 0 0 1-32 32z"  horiz-adv-x="1024" />

    
    <glyph glyph-name="wechat" unicode="&#60168;" d="M670.464 547.2c10.304 0 20.48-0.768 30.656-1.92-27.456 127.808-164.032 222.72-320 222.72C206.784 768 64 649.216 64 498.304c0-87.04 47.488-158.592 126.912-214.144l-31.744-95.36 110.912 55.552c39.68-7.808 71.488-15.872 111.04-15.872 9.984 0 19.84 0.448 29.568 1.216a237.76 237.76 0 0 0-9.792 66.56c0 138.496 119.04 250.88 269.568 250.88zM500.032 633.152c23.936 0 39.68-15.744 39.68-39.616 0-23.68-15.744-39.68-39.68-39.68-23.68 0-47.552 16-47.552 39.68 0 23.936 23.808 39.616 47.552 39.616zM278.08 553.92c-23.808 0-47.744 15.872-47.744 39.68s23.936 39.552 47.744 39.552 39.616-15.68 39.616-39.616c0-23.68-15.808-39.68-39.616-39.68zM960 300.032c0 126.72-126.912 230.08-269.44 230.08-150.912 0-269.696-103.36-269.696-230.08 0-127.168 118.848-230.144 269.696-230.144 31.616 0 63.488 7.936 95.168 15.872l86.976-47.744-23.872 79.36C912.512 165.12 960 228.48 960 299.968z m-356.864 39.68c-15.744 0-31.744 15.68-31.744 31.68 0 15.808 16 31.68 31.744 31.68 24.064 0 39.68-15.872 39.68-31.68 0-16-15.616-31.68-39.68-31.68z m174.4 0c-15.616 0-31.488 15.68-31.488 31.68 0 15.808 15.808 31.68 31.488 31.68 23.872 0 39.68-15.872 39.68-31.68 0-16-15.808-31.68-39.68-31.68z"  horiz-adv-x="1024" />

    
    <glyph glyph-name="success-fill" unicode="&#60169;" d="M666.24 423.68l-175.616-192a31.936 31.936 0 0 0-23.616-10.368h-0.128a32 32 0 0 0-23.68 10.688l-85.76 96a32 32 0 0 0 47.744 42.624l62.144-69.632 151.68 165.952a32 32 0 1 0 47.296-43.264M512 768C300.16 768 128 595.712 128 384c0-211.776 172.224-384 384-384 211.648 0 384 172.224 384 384 0 211.712-172.352 384-384 384"  horiz-adv-x="1024" />

    
    <glyph glyph-name="sort" unicode="&#60170;" d="M765.44 307.2a21.12 21.12 0 0 0 0.256-19.648l-2.944-4.352-231.04-274.304A25.856 25.856 0 0 0 512 0a26.24 26.24 0 0 0-16.64 5.76l-3.136 3.136-231.04 274.304A21.312 21.312 0 0 0 258.56 307.2a24.64 24.64 0 0 0 16.768 12.16L280.896 320h462.144c9.6 0 18.24-4.928 22.4-12.8z m0 153.6a25.152 25.152 0 0 0-22.4-12.8H280.96a25.216 25.216 0 0 0-22.4 12.8 21.312 21.312 0 0 0 2.688 24l231.04 274.304A25.792 25.792 0 0 0 512 768a26.24 26.24 0 0 0 16.576-5.76l3.2-3.136 231.04-274.304a21.248 21.248 0 0 0 2.624-24.064z"  horiz-adv-x="1024" />

    
    <glyph glyph-name="times" unicode="&#60171;" d="M554.56 384.192L823.168 652.8a30.208 30.208 0 0 1-42.752 42.752L511.808 426.88 243.2 695.552a30.208 30.208 0 0 1-42.752-42.752L469.12 384.192l-268.672-268.608a30.208 30.208 0 0 1 42.752-42.752l268.608 268.608 268.608-268.608a30.08 30.08 0 0 1 42.752 0 30.208 30.208 0 0 1 0 42.752L554.56 384.192z"  horiz-adv-x="1024" />

    
    <glyph glyph-name="upload" unicode="&#60172;" d="M313.088 535.424l169.408 139.328v-400.256a29.952 29.952 0 0 1 59.904 0V674.624l168.704-139.136a29.76 29.76 0 0 1 42.24 4.032 30.016 30.016 0 0 1-4.096 42.24L531.456 761.152l-0.512 0.448a28.8 28.8 0 0 1-11.84 5.632H519.04l-1.92 0.384-2.112 0.256L513.024 768h-2.56c-0.576 0-1.088-0.064-1.6-0.192l-2.304-0.32a12.16 12.16 0 0 1-1.92-0.448l-0.32-0.064a26.688 26.688 0 0 1-3.648-1.28l-0.192-0.064c-1.28-0.512-2.496-1.28-3.648-1.92-1.28-0.768-2.432-1.536-3.52-2.496L275.008 581.632a30.016 30.016 0 1 1 38.08-46.208z m553.024-208.704a29.952 29.952 0 0 1-29.952-29.952v-204.032H187.84V296.768a29.952 29.952 0 0 1-59.84 0v-233.984c0-16.512 13.44-29.952 29.952-29.952h708.096c16.512 0 29.952 13.44 29.952 29.952V296.768a29.888 29.888 0 0 1-29.888 29.952z"  horiz-adv-x="1024" />

    
    <glyph glyph-name="reresh" unicode="&#60173;" d="M832 384a32 32 0 0 1-32-32c0-158.784-129.216-288-288-288a288.32 288.32 0 0 0-288 288C224 510.784 353.216 640 512 640c66.176 0 129.536-22.784 180.608-64H608a32 32 0 0 1 0-64H768a32 32 0 0 1 32 32V704a32 32 0 1 1-64 0v-80.96A350.464 350.464 0 0 1 512 704a352.384 352.384 0 0 1-352-352C160 157.888 317.952 0 512 0c194.112 0 352 157.888 352 352A32 32 0 0 1 832 384"  horiz-adv-x="1024" />

    
    <glyph glyph-name="radio-border" unicode="&#60174;" d="M512 896a512 512 0 1 0 0-1024A512 512 0 0 0 512 896z m0-128a384 384 0 1 1 0-768A384 384 0 0 1 512 768z"  horiz-adv-x="1024" />

    
    <glyph glyph-name="search" unicode="&#60175;" d="M192 448a256 256 0 1 0 512 0 256 256 0 0 0-512 0m631.744-362.496l-143.168 143.168A318.464 318.464 0 0 1 768 448a320 320 0 1 1-320-320c65.92 0 130.368 20.48 184.128 58.56l146.368-146.304a32.064 32.064 0 0 1 45.248 45.248"  horiz-adv-x="1024" />

    
    <glyph glyph-name="plus" unicode="&#60176;" d="M512 64a32 32 0 0 1 32 32v256h256a32 32 0 1 1 0 64h-256v256a32 32 0 0 1-64 0v-256h-256a32 32 0 0 1 0-64h256v-256a32 32 0 0 1 32-32"  horiz-adv-x="1024" />

    
    <glyph glyph-name="radio-fill" unicode="&#60177;" d="M512 896a512 512 0 1 0 0-1024A512 512 0 0 0 512 896z m0-64a448 448 0 1 1 0-896A448 448 0 0 1 512 832z m0-128a320 320 0 1 0 0-640A320 320 0 0 0 512 704z"  horiz-adv-x="1024" />

    
    <glyph glyph-name="pause" unicode="&#60178;" d="M512 768c211.776 0 384-172.224 384-384s-172.224-384-384-384-384 172.224-384 384 172.224 384 384 384zM416 576a32 32 0 0 1-32-32v-320l0.512-5.76A32 32 0 0 1 448 224v320l-0.512 5.76A32 32 0 0 1 416 576z m192 0a32 32 0 0 1-32-32v-320l0.512-5.76A32 32 0 0 1 640 224v320l-0.512 5.76A32 32 0 0 1 608 576z"  horiz-adv-x="1024" />

    
    <glyph glyph-name="paperclip" unicode="&#60179;" d="M842.752 636.096a159.04 159.04 0 0 1-113.088 46.912h-0.128a158.592 158.592 0 0 1-112.768-46.656l-0.128-0.064L322.112 341.76a96 96 0 0 1 135.744-135.744l294.528 294.528a32 32 0 1 1-45.248 45.248l-294.464-294.528a31.872 31.872 0 0 0-45.12 0.128 31.552 31.552 0 0 0-0.192 45.12l294.464 294.528c17.92 17.92 42.24 28.032 67.712 27.968h0.064c25.472 0 49.92-10.112 67.84-28.16 18.112-18.112 28.16-42.24 28.16-67.84 0.128-25.408-9.984-49.856-27.968-67.776L718.144 375.68l-0.512-0.448-220.416-220.48a160.32 160.32 0 0 0-226.432-0.128A158.912 158.912 0 0 0 224 267.776c0 42.816 16.64 83.072 46.912 113.28l300.288 300.288a32 32 0 1 1-45.248 45.312L225.664 426.24A222.848 222.848 0 0 1 160 267.776c0-59.84 23.296-116.16 65.472-158.4a223.168 223.168 0 0 1 158.336-65.472 223.68 223.68 0 0 1 158.656 65.6l311.424 311.424a31.68 31.68 0 0 1 7.104 11.072c18.496 26.56 28.608 57.92 28.608 91.072a159.104 159.104 0 0 1-46.848 113.024"  horiz-adv-x="1024" />

    
    <glyph glyph-name="operational-solutions" unicode="&#60180;" d="M380.928 565.12a432 432 0 0 0 171.52 4.288l21.184-4.288 28.16-6.464 14.976-3.84 14.912-4.224a380.096 380.096 0 0 1 206.144-5.184l18.368 5.12 14.08 4.352a23.936 23.936 0 0 0 30.528-18.368l0.448-4.48v-350.08c0-8.704-4.736-16.64-12.16-20.864l-4.736-2.048-14.08-4.288a427.776 427.776 0 0 0-233.6-5.44l-32.32 9.28-13.44 3.328-27.968 6.464a383.744 383.744 0 0 1-152.448 3.84l-18.816-3.84-23.744-5.44v-203.008a23.936 23.936 0 0 0-47.424-4.8L320-40.064l0.192 575.168 1.024 4.48 1.728 3.968 2.368 3.52 2.56 2.688 3.52 2.624 3.904 1.92 3.264 1.088 42.368 9.728z m-20.48 196.288l21.184-4.288 28.16-6.464 14.976-3.84 14.912-4.224a380.096 380.096 0 0 1 206.144-5.184l18.368 5.12 14.08 4.352a23.936 23.936 0 0 0 30.528-18.368l0.448-4.48v-124.48a315.904 315.904 0 0 0-41.984 7.488l-5.952 1.728v83.2a427.648 427.648 0 0 0-216.448-0.64l-32.512 9.28L398.912 704l-27.968 6.4a383.744 383.744 0 0 1-152.448 3.84l-18.816-3.84-23.744-5.44v-300.864l13.056 3.008c22.144 5.056 44.608 8.32 67.2 9.856L256 368.96c-12.608-0.96-25.216-2.56-37.76-4.8l-18.624-3.776-23.744-5.44v-203.008a23.936 23.936 0 0 0-47.424-4.8L128 151.936l0.192 575.168 1.024 4.48 1.728 3.968 2.368 3.52 2.56 2.688 3.52 2.624 3.904 1.92 3.264 1.088 42.368 9.728a432 432 0 0 0 171.52 4.288zM562.944 518.4a383.744 383.744 0 0 1-152.448 3.84l-18.816-3.84-23.744-5.44v-300.864l13.056 3.008a432 432 0 0 0 171.52 4.288l21.184-4.288 28.032-6.464 15.04-3.84 14.912-4.224c66.176-20.48 136.512-22.4 203.52-5.888l18.112 4.992V499.968a427.648 427.648 0 0 0-216.448-0.64l-32.512 9.28L590.912 512l-27.968 6.4z"  horiz-adv-x="1024" />

    
    <glyph glyph-name="move" unicode="&#60181;" d="M320 192c23.616 0 44.032-12.992 55.168-32A63.616 63.616 0 0 0 320 64a63.616 63.616 0 0 0-55.168 96A63.808 63.808 0 0 0 320 192z m384 0c23.616 0 44.032-12.992 55.104-32A63.616 63.616 0 0 0 704 64a63.616 63.616 0 0 0-55.104 96A63.808 63.808 0 0 0 704 192zM320 448c23.616 0 44.032-12.928 55.168-32A63.616 63.616 0 0 0 384 384a63.616 63.616 0 0 0-8.832-32A63.808 63.808 0 0 0 320 320a63.808 63.808 0 0 0-55.168 32A63.616 63.616 0 0 0 256 384a63.552 63.552 0 0 0 8.832 32A63.808 63.808 0 0 0 320 448z m384 0c23.616 0 44.032-12.928 55.104-32A63.616 63.616 0 0 0 768 384a63.616 63.616 0 0 0-8.896-32A63.808 63.808 0 0 0 704 320a63.808 63.808 0 0 0-55.104 32A63.616 63.616 0 0 0 640 384a63.552 63.552 0 0 0 8.896 32A63.808 63.808 0 0 0 704 448zM320 704a63.616 63.616 0 0 0 55.168-96A63.808 63.808 0 0 0 320 576a63.808 63.808 0 0 0-55.168 32A63.616 63.616 0 0 0 320 704z m384 0a63.616 63.616 0 0 0 55.104-96A63.808 63.808 0 0 0 704 576a63.808 63.808 0 0 0-55.104 32A63.616 63.616 0 0 0 704 704z"  horiz-adv-x="1024" />

    
    <glyph glyph-name="message" unicode="&#60182;" d="M688 352a48 48 0 1 0 0 96 48 48 0 0 0 0-96M512 352A48 48 0 1 0 512 448a48 48 0 0 0 0-96m-176 0A48 48 0 1 0 333.44 448a48 48 0 0 0 2.56-96M805.312 704H218.688c-32.32 0-58.688-27.52-58.688-61.248v-471.36c0-33.856 26.432-61.312 58.816-61.312h189.376a26.24 26.24 0 0 0 18.24-10.752l38.08-71.936 2.944-4.544a56.32 56.32 0 0 1 44.48-22.848c17.216 0 33.408 8.32 44.608 22.848l40.96 76.544a26.368 26.368 0 0 0 18.368 10.688h189.504c32.32 0 58.624 27.52 58.624 61.248V642.752c0 33.728-26.368 61.248-58.688 61.248"  horiz-adv-x="1024" />

    
    <glyph glyph-name="member-portrait" unicode="&#60183;" d="M512 832a448 448 0 1 0 0-896A448 448 0 0 0 512 832z m32-65.28V640h-64V766.72A384.064 384.064 0 0 1 129.28 416H256v-64H129.28a384.128 384.128 0 0 1 350.72-350.72V128h64v-126.72a384.128 384.128 0 0 1 350.72 350.72H768v64h126.72A384.128 384.128 0 0 1 544 766.72zM507.776 576c20.48 0 40.32-6.272 56.64-17.856 21.888-15.296 35.84-38.528 38.72-64l0.512-9.6v-54.4c0-19.2-6.4-38.016-18.432-53.568-4.864-6.4-10.496-12.288-16.96-17.28 55.36-10.496 105.6-31.36 108.416-32.64a43.84 43.84 0 0 0 19.968-16.576c3.456-5.12 5.888-11.008 6.912-16.896l0.512-5.952-0.32-65.664a34.88 34.88 0 0 0-29.44-29.12l-5.952-0.448H355.712a37.056 37.056 0 0 0-32.448 19.008l-2.304 5.184L320 218.88V287.232a44.8 44.8 0 0 0 27.968 39.68l21.44 8.256a601.664 601.664 0 0 0 79.744 22.784 90.56 90.56 0 0 0-36.736 62.528l-0.576 9.664v54.4C411.84 535.04 454.848 576 507.712 576z"  horiz-adv-x="1024" />

    
    <glyph glyph-name="message-push" unicode="&#60184;" d="M850.112 704c31.616 0 60.48-12.416 81.28-35.008 20.864-22.72 30.848-52.8 28.16-84.672l-31.36-357.44c-5.44-63.232-61.568-114.816-124.928-114.816H150.4a27.968 27.968 0 1 0 0 56h652.928c35.072 0 66.176 28.608 69.184 63.808l30.272 345.92-334.4-241.216a27.904 27.904 0 0 0-34.176 1.088L218.624 597.376l-2.56 2.752a27.968 27.968 0 0 0-8.448 40c19.84 29.44 59.584 63.872 106.56 63.872h535.936z m-369.28-410.112a27.968 27.968 0 1 0 0-56H161.28a27.968 27.968 0 0 0 0 56h319.488zM384.576 411.712a27.968 27.968 0 0 0 0-55.936H91.968a27.968 27.968 0 0 0 0 55.936H384.64z m465.6 236.288H314.24c-14.912 0-30.976-8.832-43.904-20.608l282.88-232.832 333.12 240.192-1.6 1.472a53.696 53.696 0 0 1-34.496 11.776zM254.528 528.64a27.968 27.968 0 0 0 0-56H123.904a27.968 27.968 0 0 0 0 56h130.56z"  horiz-adv-x="1024" />

    
    <glyph glyph-name="member-config" unicode="&#60185;" d="M512 768a32 32 0 0 0 32-32l0.064-228.032a128 128 0 0 0 0-247.872L544 32a32 32 0 1 0-64 0V260.032a128 128 0 0 0 0 247.936V736A32 32 0 0 0 512 768z m352 0a32 32 0 0 0 32-32l0.064-87.872a128 128 0 0 0 0-247.936L896 32a32 32 0 1 0-64 0V400.192a128 128 0 0 0 0 247.936V736a32 32 0 0 0 32 32z m-704 0a32 32 0 0 0 32-32l0.064-361.792a128 128 0 0 0 0-247.936L192 32a32 32 0 1 0-64 0v94.272a128 128 0 0 0 0 247.936V736a32 32 0 0 0 32 32z m0-453.76a64 64 0 1 1 0-128 64 64 0 0 1 0 128zM512 448a64 64 0 1 1 0-128 64 64 0 0 1 0 128z m352 140.16a64 64 0 1 1 0-128 64 64 0 0 1 0 128z"  horiz-adv-x="1024" />

    
    <glyph glyph-name="log" unicode="&#60186;" d="M285.44 736.448v-61.376h-9.152a22.976 22.976 0 0 1-22.4-18.304l-0.512-4.608v-466.944c0-11.072 7.872-20.288 18.304-22.4l4.608-0.512h265.024v30.4c2.112 8.576 4.8 17.024 8 25.216 4.032 4.032 4.032 8.064 4.032 12.032 4.992 11.456 10.88 22.4 17.792 32.704 4.864 7.104 10.176 13.952 15.872 20.416l8.768 9.408 9.216 8.064 9.728 8.96 10.304 8.256 12.672 8 21.184 11.52 14.336 5.696 22.976 6.912 14.912 3.392h8.576V652.16a22.976 22.976 0 0 1-18.304 22.4l-4.608 0.512h-9.216v61.44h9.216a84.288 84.288 0 0 0 83.776-74.88l0.512-9.472v-300.608l0.64 0.64a212.224 212.224 0 1 0-238.72-265.088l-2.816 11.52H276.288a84.288 84.288 0 0 0-83.776 74.816L192 182.976v469.12c0 43.712 33.152 79.616 75.712 83.904l8.576 0.448h9.216z m452.608-445.44l-9.152-0.256H716.8l-8.96-2.56-8.768-3.2-10.368-3.392-8.768-4.288-8.448-4.864-10.88-5.184-7.936-6.08-7.552-6.528-6.848-5.76-6.592-7.552-6.08-7.936-5.76-6.848a151.424 151.424 0 0 1-9.152-17.28c-1.664-2.816-4.544-5.696-4.544-8.576l-3.52-9.92-2.816-10.112v-8.064a150.848 150.848 0 0 1 136.192-180.224l11.2-0.448v-2.304a150.592 150.592 0 0 1 10.304 300.8l-19.456 0.64z m9.152-58.176c15.232 0 27.904-10.88 30.528-25.408l0.448-5.568v-28.096h29.824v1.728a30.976 30.976 0 0 0 5.568-61.44l-5.568-0.512h-60.8a30.976 30.976 0 0 0-30.464 25.408l-0.512 5.568v57.344c0 17.152 13.888 30.976 30.976 30.976zM522.368 408.96a30.976 30.976 0 0 0 5.568-61.44l-5.568-0.512H363.52a30.976 30.976 0 0 0-5.568 61.44l5.568 0.512h158.848z m87.744 137.088a30.976 30.976 0 0 0 6.08-61.44l-5.504-0.512H363.52a30.976 30.976 0 0 0-5.568 61.44l5.568 0.512h246.592zM362.944 767.36c15.168 0 27.84-10.944 30.464-25.408l0.512-5.568v-60.8a30.976 30.976 0 0 0-61.376-6.08l-0.64 5.504v61.44c0 17.024 13.888 30.912 31.04 30.912zM610.112 768c15.232 0 27.904-10.944 30.528-25.408l0.448-5.568v-61.376a30.976 30.976 0 0 0-61.248-6.528l-0.64 5.376v62.528c0 17.088 13.824 30.976 30.912 30.976z m-76.8-31.552v-61.952H440.32v61.952h92.928z"  horiz-adv-x="1024" />

    
    <glyph glyph-name="link" unicode="&#60187;" d="M384 234.24c0 49.6 22.144 93.312 55.808 119.296l7.424 5.248v-119.744l-0.128-2.368v-92.352c0-19.52 6.72-37.888 19.008-51.712A60.928 60.928 0 0 1 512 71.04c17.344 0 33.664 7.68 45.952 21.504a76.8 76.8 0 0 1 18.688 44.48l0.256 7.232v89.984l-0.128 4.928-0.384 4.864V359.04c35.648-23.424 60.352-65.792 63.36-114.88l0.256-9.92v-89.984C640 64.64 582.72 0 512 0c-68.096 0-123.712 59.904-127.744 135.552L384 144.384V234.24z m96.256 303.552c0 19.584 14.08 35.52 31.552 35.52 15.808 0 28.928-13.184 31.168-30.272l0.32-5.248h0.256v-307.584c-0.192-19.648-14.336-35.52-31.808-35.52-17.408 0-31.488 15.872-31.488 35.52l0.192 4.16V533.632l-0.192 4.16zM384 623.68C384 703.36 441.344 768 512 768c68.096 0 123.712-59.904 127.744-135.552l0.256-8.832V533.76c0-49.92-22.464-93.952-56.64-119.872l-7.04-4.928V523.904l0.448 4.864 0.128 4.928V623.616c0 19.584-6.72 37.952-19.008 51.84A61.056 61.056 0 0 1 512 696.768a60.992 60.992 0 0 1-45.888-21.44 76.8 76.8 0 0 1-18.752-44.48l-0.256-7.296v-92.288l0.128-2.368v-119.808c-35.328 23.424-59.776 65.408-62.912 113.984L384 533.76V623.68z"  horiz-adv-x="1024" />

    
    <glyph glyph-name="info" unicode="&#60188;" d="M512 768a384 384 0 1 0 0-768A384 384 0 0 0 512 768z m0-65.152a318.912 318.912 0 1 1 0.128-637.824A318.912 318.912 0 0 1 512 702.848z m20.544-264c3.84 0 6.912-3.072 6.912-6.848v-233.152A6.848 6.848 0 0 0 532.48 192H491.52a6.848 6.848 0 0 0-6.912 6.848V432c0 3.776 3.136 6.848 6.912 6.848zM512 576a41.152 41.152 0 1 0 0-82.304A41.152 41.152 0 0 0 512 576z"  horiz-adv-x="1024" />

    
    <glyph glyph-name="info-fill" unicode="&#60189;" d="M512 768C300.224 768 128 595.776 128 384s172.224-384 384-384 384 172.224 384 384-172.224 384-384 384zM512 544a32 32 0 1 1 0 64 32 32 0 0 1 0-64z m0-384a32 32 0 0 1 32 32V448a32 32 0 0 1-64 0v-256a32 32 0 0 1 32-32z"  horiz-adv-x="1024" />

    
    <glyph glyph-name="ing" unicode="&#60190;" d="M512 768c211.776 0 384-172.224 384-384s-172.224-384-384-384-384 172.224-384 384 172.224 384 384 384z m-38.528-206.72a21.376 21.376 0 0 1-40.704-0.192l-61.056-192.832H277.376a21.376 21.376 0 0 1 0-42.816h109.952a21.376 21.376 0 0 1 20.416 14.976l45.632 144.192 106.56-327.68a21.376 21.376 0 0 1 40.128-1.536l70.208 170.048h76.352a21.376 21.376 0 1 1 0 42.816h-90.688a21.376 21.376 0 0 1-19.776-13.248l-53.504-129.664z"  horiz-adv-x="1024" />

    
    <glyph glyph-name="ico-success" unicode="&#60191;" d="M512 896a512 512 0 1 0 0-1024A512 512 0 0 0 512 896z m0-64a448 448 0 1 1 0-896A448 448 0 0 1 512 832z m173.184-295.424a42.24 42.24 0 0 0 29.76-30.272c4.352-15.232 1.024-31.936-8.704-43.776l-221.12-268.8a38.4 38.4 0 0 0-29.696-14.528h-0.256a38.656 38.656 0 0 0-29.824 14.976l-107.904 134.4a48.384 48.384 0 0 0 3.2 63.232 37.504 37.504 0 0 0 56.96-3.584l78.208-97.408 190.976 232.192a37.888 37.888 0 0 0 38.4 13.568z"  horiz-adv-x="1024" />

    
    <glyph glyph-name="home" unicode="&#60192;" d="M768.512 67.648h-128.064v125.76c0 74.752-57.344 135.36-128.128 135.488-70.656 0-128.128-60.8-128.128-135.488v-125.632H256.128V517.44L512 694.528l256.512-177.472v-449.408z m-192.128 0l-128.128 0.064v125.696c0 37.376 28.736 67.84 64 67.84 35.392 0 64.128-30.464 64.128-67.84v-125.696z m305.152 452.096l-80.96 56V684.288a32.96 32.96 0 0 1-32 33.792c-17.728 0-32.064-15.104-32.064-33.792v-64.256L529.856 763.072a30.08 30.08 0 0 1-18.112 4.864 29.952 29.952 0 0 1-17.6-4.864L142.464 519.68a35.008 35.008 0 0 1-9.216-46.848 31.04 31.04 0 0 1 44.352-9.728L192 473.152v-415.424c0-31.808 27.2-57.728 60.608-57.728h519.296c33.408 0 60.608 25.92 60.608 57.728V472.704l13.888-9.6c14.72-10.24 34.56-5.76 44.288 9.792a35.008 35.008 0 0 1-9.216 46.848z"  horiz-adv-x="1024" />

    
    <glyph glyph-name="financial" unicode="&#60193;" d="M801.664 582.464H222.336C170.24 582.464 128 537.344 128 481.792v-381.12C128 45.184 170.304 0 222.336 0h579.328C853.76 0 896 45.184 896 100.672V481.792c0 55.552-42.304 100.672-94.336 100.672z m40.448-481.792c0-23.808-18.112-43.136-40.448-43.136H222.336c-22.336 0-40.448 19.328-40.448 43.136V481.792c0 23.808 18.112 43.136 40.448 43.136h579.328c22.336 0 40.448-19.328 40.448-43.136v-381.12zM637.376 315.456c11.648 0 21.12 10.048 21.12 22.528 0 12.416-9.472 22.528-21.12 22.528H558.4l80.576 86.016a23.68 23.68 0 0 1 0 31.872 20.16 20.16 0 0 1-29.888 0l-96-102.4-95.936 102.4a20.16 20.16 0 0 1-29.824 0 23.68 23.68 0 0 1 0-31.872L467.84 360.512H386.56c-11.712 0-21.12-10.112-21.12-22.528 0-12.48 9.408-22.528 21.12-22.528H490.88v-49.728H386.56c-11.648 0-21.12-10.048-21.12-22.528 0-12.416 9.472-22.528 21.12-22.528h104.32v-106.24c0-12.416 9.408-22.528 21.12-22.528 11.648 0 21.12 10.112 21.12 22.592v106.24h104.32c11.584 0 21.12 10.048 21.12 22.464 0 12.48-9.536 22.528-21.12 22.528H533.12V315.52h104.32z m-412.544 302.72h574.336c14.848 0 26.88 12.928 26.88 28.8s-12.032 28.8-26.88 28.8H224.832c-14.848 0-26.944-12.928-26.944-28.8s12.096-28.8 26.944-28.8z m71.616 92.288h431.104c14.912 0 26.944 12.864 26.944 28.8 0 15.872-12.032 28.736-26.88 28.736H296.384c-14.912 0-26.944-12.864-26.944-28.8 0-15.872 12.032-28.736 26.88-28.736z"  horiz-adv-x="1024" />

    
    <glyph glyph-name="filter-normal" unicode="&#60194;" d="M874.688 689.088a95.424 95.424 0 0 1-89.6 59.712h-524.8c-38.4 0-72.576-21.312-89.6-57.6a98.816 98.816 0 0 1 17.024-104.512l198.4-219.776v-196.224c0-21.376 0-46.976 8.576-68.288-2.176-12.8 4.224-25.6 14.912-32l192-115.2a40.192 40.192 0 0 1 17.088-4.288 36.48 36.48 0 0 1 27.712 14.976 40.192 40.192 0 0 1 4.288 17.024c2.112 4.288 2.112 6.4 2.112 10.688V379.712l200.512 200.576c29.888 29.824 36.288 70.4 21.376 108.8z m-66.176-61.888l-211.2-211.2c-6.4-6.4-8.512-14.912-8.512-23.488v-358.4L465.088 108.8c-12.8 8.512-14.976 25.6-14.976 59.712V377.6a27.392 27.392 0 0 1-8.512 21.312l-206.912 230.4a35.392 35.392 0 0 0-6.4 36.288 33.344 33.344 0 0 0 29.824 19.2h524.8c21.376 0 27.776-14.912 29.888-21.312 4.288-4.288 10.688-21.376-4.288-36.288z"  horiz-adv-x="1024" />

    
    <glyph glyph-name="file" unicode="&#60195;" d="M224 64.064V703.936L223.808 704H576v-159.936c0-35.328 28.736-64.064 64.064-64.064h159.68c0.064-0.512 0.256-1.216 0.256-1.664L800.256 64 224 64.064zM757.632 544L640 544.064V671.872L757.632 544z m76.096 11.904l-163.84 178.048A114.624 114.624 0 0 1 592.64 768H223.872A64 64 0 0 1 160 703.872v-639.808A64 64 0 0 1 223.744 0h576.512a64 64 0 0 1 63.744 64.128V478.336c0 25.856-12.736 58.432-30.272 77.568zM640 384H384a32 32 0 0 1 0-64h256a32 32 0 1 1 0 64m0-160H384a32 32 0 1 1 0-64h256a32 32 0 1 1 0 64"  horiz-adv-x="1024" />

    
    <glyph glyph-name="filter-active" unicode="&#60196;" d="M874.688 689.088a95.424 95.424 0 0 1-89.6 59.712h-524.8c-38.4 0-72.576-21.312-89.6-57.6a98.816 98.816 0 0 1 17.024-104.512l198.4-219.776v-196.224c0-21.376 0-46.976 8.576-68.288-2.176-12.8 4.224-25.6 14.912-32l192-115.2a40.192 40.192 0 0 1 17.088-4.288 36.48 36.48 0 0 1 27.712 14.976 40.192 40.192 0 0 1 4.288 17.024c2.112 4.288 2.112 6.4 2.112 10.688V379.712l200.512 200.576c29.888 29.824 36.288 70.4 21.376 108.8z"  horiz-adv-x="1024" />

    
    <glyph glyph-name="eye" unicode="&#60197;" d="M512 669.44c-174.528 0-324.672-113.92-384-275.648 59.328-161.792 209.472-275.712 384-275.712s324.672 113.92 384 275.712C836.48 555.52 686.528 669.44 512 669.44z m0-459.392c-97.792 0-174.528 80.896-174.528 183.68 0 103.04 76.864 183.744 174.528 183.744 97.664 0 174.528-80.896 174.528-183.68 0-103.04-76.736-183.68-174.528-183.68z m0 294.016c-59.328 0-104.704-47.872-104.704-110.272 0-62.464 45.44-110.272 104.704-110.272 59.328 0 104.704 47.808 104.704 110.272 0 62.4-45.44 110.272-104.704 110.272z"  horiz-adv-x="1024" />

    
    <glyph glyph-name="eye-slash" unicode="&#60198;" d="M506.752 501.888l108.672-104.384v6.72c0 57.28-45.568 101.056-105.152 101.056 0-3.392 0-3.392-3.52-3.392z m-150.784-26.88l52.608-50.56v-23.616c0-57.28 45.568-101.056 105.152-101.056 7.04 0 14.08 0 24.576 3.392l52.608-50.56a154.88 154.88 0 0 0-77.184-20.16c-98.176 0-175.36 74.048-175.36 168.384 0 26.944 7.04 50.56 17.6 74.112zM163.072 660.16l80.64-77.44 14.08-13.504C198.08 525.44 152.512 468.16 128 400.832c59.648-148.224 210.432-252.608 385.728-252.608 52.608 0 105.216 10.112 154.304 26.88l14.08-13.44L783.808 64l45.568 43.776L208.64 704l-45.568-43.776z m350.72-90.944c98.176 0 175.36-74.112 175.36-168.448 0-20.224-3.584-43.776-14.08-60.608l101.696-97.728c52.608 43.84 94.72 97.728 119.232 158.336-59.648 148.224-210.432 252.672-385.728 252.672-49.152 0-94.72-10.112-140.288-23.616l77.12-74.112c21.12 10.112 45.632 13.44 66.624 13.44z"  horiz-adv-x="1024" />

    
    <glyph glyph-name="export" unicode="&#60199;" d="M663.424 582.912l139.328-169.408H402.496a29.952 29.952 0 0 1 0-59.904h400.128l-139.136-168.704a29.76 29.76 0 0 1 4.032-42.24c12.8-10.432 31.68-8.64 42.24 4.096l180.864 219.52 2.624 4.48 1.536 4.032 1.152 6.272v5.312l-0.64 4.032-1.664 5.12-1.92 3.648-2.496 3.52-179.584 218.304a30.016 30.016 0 1 1-46.208-38.08z m-208.704-553.024a29.952 29.952 0 0 1-29.952 29.952H220.736V708.16h204.032a29.952 29.952 0 0 1 0 59.84H190.72a29.952 29.952 0 0 1-29.952-29.952v-708.096c0-16.512 13.44-29.952 29.952-29.952h233.984c14.72-0.064 26.88 10.56 29.44 24.512l0.512 5.376z"  horiz-adv-x="1024" />

    
    <glyph glyph-name="email" unicode="&#60200;" d="M512 320a32 32 0 0 0-17.216 4.992L128 558.464v-430.72A64 64 0 0 1 192.064 64h639.872A64 64 0 0 1 896 127.744V558.08L529.152 325.056A32.128 32.128 0 0 0 512 320m319.936 384H192.064A64 64 0 0 1 128 640.192v-4.928l384-245.312 384 244.032v6.208A64 64 0 0 1 831.936 704"  horiz-adv-x="1024" />

    
    <glyph glyph-name="empty" unicode="&#60201;" d="M882.688 272.384c2.56-12.8 3.584-26.112 3.584-27.648l-1.024-138.24a53.888 53.888 0 0 0-16.896-39.424c-15.872-14.336-38.912-14.848-43.52-14.848H194.56c-2.56 0-26.112 1.024-40.96 14.848-14.848 13.824-16.384 34.816-16.384 37.376v140.544c0 3.712 0.192 9.792 1.024 17.152a18.88 18.88 0 0 1 16.896-10.752h237.056l2.56-9.728a119.104 119.104 0 0 1 115.712-89.088 118.4 118.4 0 0 1 115.2 89.088l2.56 9.728h235.52a18.88 18.88 0 0 1 18.944 18.944z m-161.28 202.752c2.56 0 23.04-1.536 37.888-10.24 14.336-8.192 26.624-24.064 28.16-25.6l0.512-1.024 81.408-129.024s0.512 0 0.512-0.512c1.024-2.048 8.192-16.384 12.288-30.208a19.2 19.2 0 0 1-17.408 11.264h-253.44a19.2 19.2 0 0 1-18.944-18.944c0-45.056-35.84-80.384-81.408-80.384a80.128 80.128 0 0 0-81.408 80.384 19.2 19.2 0 0 1-18.944 18.944H155.648a21.568 21.568 0 0 1-12.8-4.608c5.632 18.432 12.288 30.208 14.336 33.28L225.792 440.32c0 0.512 0.512 1.024 0.512 1.024 1.024 1.536 11.264 16.384 25.088 25.088a74.88 74.88 0 0 0 34.816 8.704zM509.44 729.6a26.24 26.24 0 0 0 26.112-26.112v-150.016c0-14.336-11.776-25.6-26.112-25.6a26.24 26.24 0 0 0-26.112 26.112V703.488A26.24 26.24 0 0 0 509.44 729.6z m233.984-75.264a26.112 26.112 0 0 0 26.112-23.04 27.712 27.712 0 0 0-5.632-18.944l-59.392-73.216a22.72 22.72 0 0 0-20.48-10.24 26.24 26.24 0 0 0-20.48 42.496l59.392 73.216a26.24 26.24 0 0 0 20.48 9.728z m-463.872 2.048a26.24 26.24 0 0 0 20.48-9.728L358.4 572.928a26.624 26.624 0 0 0-4.096-36.864 27.52 27.52 0 0 0-16.384-5.632 27.008 27.008 0 0 0-20.48 9.728l-58.368 73.728a26.624 26.624 0 0 0 4.096 36.864 26.432 26.432 0 0 0 16.384 5.632z"  horiz-adv-x="1024" />

    
    <glyph glyph-name="ellipsis" unicode="&#60202;" d="M512 576a63.808 63.808 0 0 1 55.104 32A63.616 63.616 0 0 1 512 704a63.616 63.616 0 0 1-55.168-96c11.136-19.072 31.552-32 55.168-32m0-128a63.808 63.808 0 0 1-55.168-32A63.552 63.552 0 0 1 448 384c0-11.712 3.392-22.528 8.832-32 11.136-19.008 31.552-32 55.168-32a63.808 63.808 0 0 1 55.104 32A63.616 63.616 0 0 1 576 384a63.616 63.616 0 0 1-8.896 32A63.808 63.808 0 0 1 512 448m0-256a63.808 63.808 0 0 1-55.168-32A63.616 63.616 0 0 1 512 64a63.616 63.616 0 0 1 55.104 96A63.808 63.808 0 0 1 512 192"  horiz-adv-x="1024" />

    
    <glyph glyph-name="edit" unicode="&#60203;" d="M766.848 460.736l-176.576 176.64 66.688 66.752 176.576-176.704-66.624-66.688z m-365.44-365.696L224.64 271.808l0.256-0.064 320.128 320.32 176.64-176.64-320.32-320.384h0.128zM224 94.08v87.872l87.68-87.68-87.68-0.192z m655.04 478.528l-176.768 176.704A60.992 60.992 0 0 1 656.96 768a64 64 0 0 1-45.12-18.88L179.584 317.056a63.936 63.936 0 0 1-17.92-54.4c-0.768-2.624-1.664-5.248-1.664-8.192v-160.32c0-35.136 28.544-63.68 63.68-63.68H384c2.88 0 5.504 0.896 8.192 1.664 2.944-0.448 5.952-0.832 8.96-0.832 16.384 0 32.896 6.272 45.44 18.752l432.128 432.192a64 64 0 0 1 0.256 90.432h0.064z"  horiz-adv-x="1024" />

    
    <glyph glyph-name="delete" unicode="&#60204;" d="M736 544l0.128-448H288v448h448zM384 672h256v-64H384v64z m448-64h-128V693.376c0 20.544-16.768 42.624-63.872 42.624H383.808c-47.04 0-63.808-22.08-63.808-42.624V608H192a32 32 0 0 1 0-64h32v-448c0-35.328 28.736-64 64-64h448c35.328 0 64 28.672 64 64v448h32a32 32 0 1 1 0 64z m-224-402.56a32 32 0 0 1 32 32V448a32 32 0 0 1-64 0v-210.56a32 32 0 0 1 32-32m-192 0a32 32 0 0 1 32 32V448a32 32 0 0 1-64 0v-210.56a32 32 0 0 1 32-32"  horiz-adv-x="1024" />

    
    <glyph glyph-name="copy" unicode="&#60205;" d="M394.688 789.312h448c41.216 0 74.624-33.408 74.624-74.624v-448c0-41.28-33.408-74.688-74.624-74.688h-448A74.688 74.688 0 0 0 320 266.688v448c0 41.216 33.408 74.624 74.688 74.624z m0-64A10.688 10.688 0 0 1 384 714.688v-448c0-5.888 4.8-10.688 10.688-10.688h448a10.688 10.688 0 0 1 10.624 10.688v448a10.688 10.688 0 0 1-10.624 10.624h-448zM640 128a32 32 0 1 0 64 0v-74.688c0-41.216-33.408-74.624-74.688-74.624h-448a74.688 74.688 0 0 0-74.624 74.624v448C106.688 542.592 140.096 576 181.312 576H256a32 32 0 0 0 0-64H181.312a10.688 10.688 0 0 1-10.624-10.688v-448c0-5.888 4.736-10.624 10.624-10.624h448a10.688 10.688 0 0 1 10.688 10.624V128z"  horiz-adv-x="1024" />

    
    <glyph glyph-name="contrast" unicode="&#60206;" d="M368 390.656a32 32 0 0 0-6.272-19.392l-3.456-3.968-192-182.272a32 32 0 0 0-48.256 41.664l3.712 4.288 167.808 158.848-167.36 146.752a32 32 0 0 0 39.04 50.24l4.544-3.392 192-169.664a32 32 0 0 0 10.24-23.104zM544 0l-0.512-5.76a32 32 0 0 0-62.976 0L480 0V768l0.512 5.76a32 32 0 0 0 62.976 0L544 768v-768z m367.232 200.128a32 32 0 0 0-53.504-15.104l-192 182.272a32 32 0 0 0 0.512 46.4l192 169.728a32 32 0 0 0 43.52-46.848l-167.296-146.752 167.808-158.848a32 32 0 0 0 8.96-30.848z"  horiz-adv-x="1024" />

    
    <glyph glyph-name="clean" unicode="&#60207;" d="M512 768c211.776 0 384-172.224 384-384 0-211.712-172.224-384-384-384-211.712 0-384 172.288-384 384 0 211.776 172.288 384 384 384zM338.176 602.304a32 32 0 0 1-44.48-44.48l3.648-4.48L466.752 384l-169.408-169.344-3.648-4.48a32 32 0 0 1 44.48-44.48l4.48 3.648L512 338.752l169.344-169.408 4.48-3.648a32 32 0 0 1 44.48 44.48l-3.648 4.48L557.248 384l169.408 169.344 3.648 4.48a32 32 0 0 1-44.48 44.48l-4.48-3.648L512 429.248 342.656 598.656l-4.48 3.648z"  horiz-adv-x="1024" />

    
    <glyph glyph-name="cog" unicode="&#60208;" d="M512.512 797.696c42.368 0 84.736-21.12 107.904-63.488l4.992-10.112a123.456 123.456 0 0 1 112.896-73.6l6.656 0.128 6.72 0.576c4.864 0.512 9.6 0.768 14.272 0.768 98.432 0 159.232-113.728 98.688-196.416a123.392 123.392 0 0 1-5.952-136.96l5.952-8.832c60.48-82.624-0.256-196.352-98.752-196.352l-7.04 0.192-7.168 0.576a123.52 123.52 0 0 1-121.6-63.488l-4.672-9.408a121.728 121.728 0 0 0-112.896-73.6c-42.368 0-84.8 21.12-107.968 63.424l-4.992 10.176a123.456 123.456 0 0 1-112.832 73.6l-6.72-0.192-6.72-0.512c-4.8-0.512-9.6-0.768-14.208-0.768-95.36 0-155.392 106.688-104.064 188.544l5.376 7.808a123.392 123.392 0 0 1 5.888 136.96l-5.888 8.832C99.84 538.24 160.64 651.968 259.072 651.968l7.04-0.192 7.168-0.64a123.52 123.52 0 0 1 121.6 63.552l4.672 9.408a121.728 121.728 0 0 0 112.96 73.6z m0-60.032c-12.224 0-23.936-3.2-33.92-9.408a60.288 60.288 0 0 1-20.544-21.376l-3.584-7.04a183.488 183.488 0 0 0-167.744-109.44l-9.984 0.32-9.92 0.768a60.096 60.096 0 0 1-40.96-9.216c-9.472-6.08-17.28-14.848-22.528-25.28a61.696 61.696 0 0 1 5.44-65.984 183.104 183.104 0 0 0 0-216.704 61.696 61.696 0 0 1-5.504-65.92c5.312-10.496 13.12-19.2 22.656-25.344 9.856-6.4 21.056-9.6 33.152-9.6h3.84l3.84 0.384a183.488 183.488 0 0 0 182.144-96.832l5.568-11.52a61.952 61.952 0 0 1 58.048-37.824c12.16 0 23.936 3.264 33.92 9.408a60.288 60.288 0 0 1 20.48 21.376l3.648 7.04a183.488 183.488 0 0 0 167.744 109.44l9.984-0.256 9.92-0.832a60.096 60.096 0 0 1 40.96 9.216c9.408 6.144 17.28 14.912 22.528 25.344l2.88 6.528a60.992 60.992 0 0 1-8.32 59.392 183.168 183.168 0 0 0 0 216.704 61.696 61.696 0 0 1 5.44 65.92 65.28 65.28 0 0 1-22.592 25.408 60.16 60.16 0 0 1-33.216 9.6l-3.84-0.128-3.84-0.32a183.488 183.488 0 0 0-187.648 108.352 61.952 61.952 0 0 1-58.048 37.824z m0-207.232a146.944 146.944 0 1 0 0-293.888 146.944 146.944 0 0 0 0 293.888z m0-59.968c-48 0-86.976-39.04-86.976-86.976s39.04-86.976 86.976-86.976 86.976 39.04 86.976 87.04c0 47.872-39.04 86.912-87.04 86.912z"  horiz-adv-x="1024" />

    
    <glyph glyph-name="check" unicode="&#60209;" d="M822.464 630.656a28.288 28.288 0 0 1-43.072-1.28l-352.96-417.728L244.48 424.704a28.288 28.288 0 0 1-43.072 1.024 37.12 37.12 0 0 1-0.96-48.192l204.096-238.976c5.76-6.72 13.696-10.56 22.016-10.56h0.128a29.12 29.12 0 0 1 22.016 10.624L823.68 582.4a37.12 37.12 0 0 1-1.216 48.256"  horiz-adv-x="1024" />

    
    <glyph glyph-name="check-part" unicode="&#60211;" d="M768 896a256 256 0 0 0 256-256v-512a256 256 0 0 0-256-256H256a256 256 0 0 0-256 256V640a256 256 0 0 0 256 256h512z m-64-448H320a64 64 0 0 1-7.488-127.552L320 320h384a64 64 0 0 1 7.488 127.552L704 448z"  horiz-adv-x="1024" />

    
    <glyph glyph-name="check-border" unicode="&#60212;" d="M768 896a256 256 0 0 0 256-256v-512a256 256 0 0 0-256-256H256a256 256 0 0 0-256 256V640a256 256 0 0 0 256 256h512z m0-128H256a128 128 0 0 1-127.68-118.4L128 640v-512a128 128 0 0 1 118.4-127.68L256 0h512a128 128 0 0 1 127.68 118.4L896 128V640a128 128 0 0 1-118.4 127.68L768 768z"  horiz-adv-x="1024" />

    
    <glyph glyph-name="check-fill" unicode="&#60213;" d="M768 896a256 256 0 0 0 256-256v-512a256 256 0 0 0-256-256H256a256 256 0 0 0-256 256V640a256 256 0 0 0 256 256h512z m32.64-256a28.288 28.288 0 0 1-21.248-10.688l-352.96-417.664L244.48 424.704a28.288 28.288 0 0 1-43.072 1.024 37.12 37.12 0 0 1-0.96-48.192l204.096-238.976c4.608-5.376 10.624-8.96 17.088-10.112l5.056-0.448a29.12 29.12 0 0 1 22.016 10.624L823.68 582.4a37.12 37.12 0 0 1-1.216 48.256A28.288 28.288 0 0 1 800.64 640z"  horiz-adv-x="1024" />

    
    <glyph glyph-name="caret-right" unicode="&#60214;" d="M695.104 403.712l-274.304 231.04A21.248 21.248 0 0 1 396.8 637.44 25.152 25.152 0 0 1 384 615.04v-462.144c0-9.536 4.992-18.176 12.8-22.4 7.808-4.16 17.152-3.072 24 2.688l274.304 231.04A25.792 25.792 0 0 1 704 384a25.792 25.792 0 0 1-8.896 19.712"  horiz-adv-x="1024" />

    
    <glyph glyph-name="caret-down" unicode="&#60215;" d="M531.712 200.896l231.04 274.304a21.248 21.248 0 0 1 2.688 24.064 25.152 25.152 0 0 1-22.4 12.736H280.96a25.216 25.216 0 0 1-22.4-12.8 21.312 21.312 0 0 1 2.688-24l231.04-274.304A25.792 25.792 0 0 1 512 192c7.68 0 14.976 3.264 19.712 8.896"  horiz-adv-x="1024" />

    
    <glyph glyph-name="calendar" unicode="&#60216;" d="M651.648 733.12c12.8 0 23.232-10.432 23.232-23.296v-23.296h116.416a93.12 93.12 0 0 0 93.056-93.056v-488.768c0-51.392-41.664-93.056-93.056-93.056H232.704a93.12 93.12 0 0 0-93.056 93.056V593.472a93.12 93.12 0 0 0 93.056 93.056h116.416v23.296a23.296 23.296 0 0 0 46.528 0v-23.296h232.704v23.296c0 12.8 10.432 23.296 23.296 23.296z m186.176-256H186.176v-372.416c0-25.664 20.864-46.528 46.528-46.528h558.592a46.528 46.528 0 0 1 46.528 46.528V477.12z m-395.648-232.768a23.296 23.296 0 1 0 0-46.528H302.528a23.296 23.296 0 1 0 0 46.528z m279.296 0a23.296 23.296 0 1 0 0-46.528H581.76a23.296 23.296 0 1 0 0 46.528zM442.176 384a23.296 23.296 0 0 0 0-46.528H302.528a23.296 23.296 0 1 0 0 46.528z m279.296 0a23.296 23.296 0 0 0 0-46.528H581.76a23.296 23.296 0 1 0 0 46.528zM349.12 640H232.704a46.528 46.528 0 0 1-46.528-46.528v-69.824h651.648v69.76A46.528 46.528 0 0 1 791.296 640h-116.416v-23.296a23.296 23.296 0 1 0-46.528 0V640H395.648v-23.296a23.296 23.296 0 0 0-46.528 0V640z"  horiz-adv-x="1024" />

    
    <glyph glyph-name="bell" unicode="&#60217;" d="M612.608 177.472H244.928c20.928 44.416 49.152 112.64 49.152 157.952v160.64C294.08 610.752 391.808 704 512 704c120.128 0 217.92-93.248 217.92-207.872v-158.336c0-46.016 28.48-115.392 49.472-160.32H612.48zM512 81.472c-24.704 0-46.08 12.928-57.728 32h115.456c-11.648-19.072-33.024-32-57.728-32z m346.176 81.024l2.176 1.088c-17.6 33.152-63.36 128.96-63.36 174.208V496C796.992 646.08 669.12 768 512 768S227.008 646.016 227.008 496.128V335.36c0-39.488-38.848-126.272-63.296-171.648l2.24-1.152a30.272 30.272 0 0 1-5.952-17.152c0-17.728 15.04-32 33.536-32h189.12c14.976-55.04 67.072-96 129.344-96 62.272 0 114.368 40.96 129.344 96h189.12c18.56 0 33.536 14.272 33.536 32a30.4 30.4 0 0 1-5.824 17.024z"  horiz-adv-x="1024" />

    
    <glyph glyph-name="bell-site" unicode="&#60218;" d="M512 17.472c48.96 0 91.328 25.472 114.56 63.04H397.44a134.272 134.272 0 0 1 114.56-63.04m346.176 145.024l2.176 1.088c-17.6 33.152-63.36 129.024-63.36 174.208V496C796.992 646.08 669.12 768 512 768S227.072 646.016 227.072 496.128V335.36c0-39.488-38.848-126.272-63.36-171.648l2.24-1.152a30.272 30.272 0 0 1-5.952-17.152c0-17.728 15.04-32 33.536-32h160.512v1.024h341.952v-1.024h134.464a32.768 32.768 0 0 1 33.536 32c0 6.4-2.496 12.032-5.824 17.024"  horiz-adv-x="1024" />

    
    <glyph glyph-name="automation-strategies" unicode="&#60219;" d="M512 800.64a66.816 66.816 0 1 0 28.8-127.232v-90.56h134.336a207.488 207.488 0 0 0 206.848-196.672 100.288 100.288 0 0 0 0.512-192.64v-18.752a207.616 207.616 0 0 0-207.36-207.424H348.928a207.616 207.616 0 0 0-207.424 207.36v18.816a100.288 100.288 0 0 0 0.576 192.64 207.488 207.488 0 0 0 206.848 196.672H483.2V673.408A66.752 66.752 0 0 0 512 800.768z m163.136-275.392H348.928c-82.624 0-149.824-67.2-149.824-149.824v-200.704c0-82.56 67.2-149.76 149.76-149.76h326.272a150.016 150.016 0 0 1 149.76 149.76V375.424a149.952 149.952 0 0 1-149.76 149.824z m-99.712-362.88v-43.2H448.64v43.2h126.72zM352.64 394.688a67.008 67.008 0 1 0 0-133.952 67.008 67.008 0 0 0 0 134.016z m318.72 0a66.944 66.944 0 1 0 0-133.888 66.944 66.944 0 0 0 0 133.952z"  horiz-adv-x="1024" />

    
    <glyph glyph-name="arrow-up" unicode="&#60220;" d="M215.104 192.768a31.232 31.232 0 0 0-21.952 22.4 33.088 33.088 0 0 0 7.616 31.104l295.68 256A29.824 29.824 0 0 0 518.528 512c8.32-0.064 16.32-3.84 22.016-10.24l283.648-256a33.152 33.152 0 0 0-1.92-44.736 29.44 29.44 0 0 0-38.08-2.944l-266.432 235.52-273.28-231.872a29.568 29.568 0 0 0-29.44-8.96z"  horiz-adv-x="1024" />

    
    <glyph glyph-name="arrow-right" unicode="&#60221;" d="M384.96 680.896a31.232 31.232 0 0 0 22.4 21.952 33.088 33.088 0 0 0 31.104-7.616l256-295.68c6.272-5.76 9.792-13.824 9.728-22.144a29.888 29.888 0 0 0-10.24-22.016l-256-283.648a33.152 33.152 0 0 0-44.736 1.92 29.44 29.44 0 0 0-2.944 38.08l235.456 266.432-231.808 273.28a29.568 29.568 0 0 0-8.96 29.44z"  horiz-adv-x="1024" />

    
    <glyph glyph-name="arrow-left" unicode="&#60222;" d="M639.232 680.896a31.232 31.232 0 0 1-22.4 21.952 33.088 33.088 0 0 1-31.104-7.616l-256-295.68A29.824 29.824 0 0 1 320 377.472c0.064-8.32 3.84-16.32 10.24-22.016l256-283.648a33.152 33.152 0 0 1 44.736 1.92 29.44 29.44 0 0 1 2.944 38.08l-235.52 266.432 231.872 273.28a29.568 29.568 0 0 1 8.96 29.44z"  horiz-adv-x="1024" />

    
    <glyph glyph-name="arrow-down" unicode="&#60223;" d="M215.104 511.04a31.232 31.232 0 0 1-21.952-22.4 33.088 33.088 0 0 1 7.616-31.104l295.68-256c5.76-6.272 13.824-9.792 22.144-9.728a29.888 29.888 0 0 1 22.016 10.24l283.648 256a33.152 33.152 0 0 1-1.92 44.736 29.44 29.44 0 0 1-38.08 2.944L517.824 270.272l-273.28 231.808a29.568 29.568 0 0 1-29.44 8.96z"  horiz-adv-x="1024" />

    
    <glyph glyph-name="arrow-double-left" unicode="&#60224;" d="M713.728 695.232a33.088 33.088 0 0 0 31.104 7.68 31.232 31.232 0 0 0 22.4-22.016 29.312 29.312 0 0 0-5.248-25.344l-3.712-4.096-231.808-273.28 235.456-266.432a29.44 29.44 0 0 0-2.944-38.016 33.152 33.152 0 0 0-39.616-5.568l-5.12 3.584-256 283.648a29.568 29.568 0 0 0-3.904 40.448l3.392 3.776 256 295.68z m-256 0a33.088 33.088 0 0 0 31.104 7.68 31.232 31.232 0 0 0 22.4-22.016 29.312 29.312 0 0 0-5.248-25.344l-3.712-4.096-231.808-273.28 235.456-266.432a29.44 29.44 0 0 0-2.944-38.016 33.152 33.152 0 0 0-39.616-5.568l-5.12 3.584-256 283.648a29.568 29.568 0 0 0-3.904 40.448l3.392 3.776 256 295.68z"  horiz-adv-x="1024" />

    
    <glyph glyph-name="arrow-double-right" unicode="&#60225;" d="M310.4 695.232l256-295.68c6.4-5.76 9.856-13.824 9.792-22.144a29.888 29.888 0 0 0-10.24-22.016l-256-283.648a33.152 33.152 0 0 0-44.736 1.92 29.44 29.44 0 0 0-2.944 38.08l235.456 266.432-231.808 273.28a29.568 29.568 0 0 0-8.96 29.44 31.232 31.232 0 0 0 22.4 21.952 33.088 33.088 0 0 0 31.104-7.616z m256 0l256-295.68c6.4-5.76 9.856-13.824 9.792-22.144a29.888 29.888 0 0 0-10.24-22.016l-256-283.648a33.152 33.152 0 0 0-44.736 1.92 29.44 29.44 0 0 0-2.944 38.08l235.456 266.432-231.808 273.28a29.568 29.568 0 0 0-8.96 29.44 31.232 31.232 0 0 0 22.4 21.952 33.088 33.088 0 0 0 31.104-7.616z"  horiz-adv-x="1024" />

    
    <glyph glyph-name="all-members" unicode="&#60226;" d="M864 51.2a2.496 2.496 0 0 0-1.536-0.64L288 51.84v118.016c0 5.824 6.016 14.976 12.096 17.472C301.632 187.968 457.024 256 576 256c118.72 0 274.368-68.032 276.864-69.12 5.248-2.048 11.136-11.136 11.136-16.96V51.2zM480.448 455.168V560c0 61.76 50.048 111.936 111.808 112.064A112 112 0 0 0 704 559.936v-104.704A112 112 0 0 0 592.256 343.04a112 112 0 0 0-111.808 112.064z m397.248-209.28c-4.992 2.176-92.608 40.384-190.976 61.056A176 176 0 0 1 768 455.296V559.872A176.128 176.128 0 0 1 592.256 736a176.128 176.128 0 0 1-175.744-176.064v-104.704c0-59.2 29.312-111.488 74.048-143.36-108.16-18.752-210.752-63.488-215.488-65.6-29.12-12.032-51.072-44.8-51.072-76.416v-126.4h0.576c4.288-32.64 32-56.96 64.96-56.96h572.992c28.608 0 54.272 18.752 63.744 46.72l1.728 4.992v131.712c0 31.808-22.016 64.64-50.304 76.032zM360.384 322.56c1.024 0 1.92-0.256 2.944-0.256a32 32 0 0 1 0 64A68.736 68.736 0 0 0 294.784 455.04V539.264c0 37.888 30.784 68.736 68.608 68.736a32 32 0 0 1 0 64 132.864 132.864 0 0 1-132.608-132.736v-84.288c0-32.704 12.352-62.336 32.064-85.504a690.56 690.56 0 0 1-127.616-55.488 71.552 71.552 0 0 1-39.168-62.464v-91.84a32 32 0 1 1 64 0v91.712a11.456 11.456 0 0 0 2.368 4.672 28.992 28.992 0 0 1 3.52 1.856c30.464 17.728 123.84 63.68 189.824 63.68 1.6 0 3.072 0.704 4.672 0.96"  horiz-adv-x="1024" />

    
    <glyph glyph-name="add-operational-solutions" unicode="&#60227;" d="M743.68 384c101.696 0 184.32-86.08 184.32-192s-82.624-192-184.32-192c-101.632 0-184.32 86.08-184.32 192s82.624 192 184.32 192zM424.448 761.408l21.184-4.288 28.16-6.464 14.976-3.84 14.912-4.224a380.096 380.096 0 0 1 206.144-5.184l18.368 5.12 14.08 4.352a23.936 23.936 0 0 0 30.528-18.368l0.448-4.48v-276.096L768 448c-14.528 0-28.8-1.216-42.688-3.52V691.968a427.648 427.648 0 0 0-216.448-0.64l-32.512 9.28L462.912 704l-27.968 6.4a383.744 383.744 0 0 1-152.448 3.84l-18.816-3.84-23.744-5.44v-300.864l13.056 3.008a432 432 0 0 0 171.52 4.288l21.184-4.288 28.032-6.464 15.04-3.84 14.912-4.224c28.416-8.768 57.6-14.144 86.912-16.128-13.824-13.184-26.24-28.032-36.736-44.16a411.2 411.2 0 0 0-43.008 8.512l-34.496 9.792-13.44 3.328-27.968 6.464a383.744 383.744 0 0 1-152.448 3.84l-18.816-3.84-23.744-5.44v-331.008a23.936 23.936 0 0 0-47.424-4.8L192 23.936000000000035l0.192 703.168 1.024 4.48 1.728 3.968 2.368 3.52 2.56 2.688 3.52 2.624 3.904 1.92 3.264 1.088 42.368 9.728a432 432 0 0 0 171.52 4.288zM743.68 320c-67.776 0-122.88-57.408-122.88-128s55.104-128 122.88-128 122.88 57.408 122.88 128-55.104 128-122.88 128z m0-41.6a21.76 21.76 0 0 0 21.12-17.92l0.384-4.48v-40.448h39.296c11.904 0 21.504-10.048 21.504-22.4a21.952 21.952 0 0 0-17.216-21.888l-4.288-0.512h-39.296V128a21.952 21.952 0 0 0-21.504-22.4 21.76 21.76 0 0 0-21.12 17.92l-0.384 4.48v42.752h-40.576a21.952 21.952 0 0 0-21.504 22.4 21.952 21.952 0 0 0 17.216 21.888l4.288 0.512h40.576V256a21.952 21.952 0 0 0 21.504 22.4z"  horiz-adv-x="1024" />

    
    <glyph glyph-name="applications" unicode="&#60228;" d="M224 472.192V664.256l192 0.128 0.128-192.128-192.128-0.064z m192.128 256.064H223.872a64 64 0 0 1-63.936-63.936v-192.192a64 64 0 0 1 63.872-63.872h192.192a64 64 0 0 1 63.936 63.936V664.32a64 64 0 0 1-63.872 63.872V728.32zM224 88.128V280.32l192 0.128 0.128-192.128-192.128-0.128zM416.128 344.32H223.872a64 64 0 0 1-63.936-63.936v-192.192a64 64 0 0 1 63.872-63.872h192.192a64 64 0 0 1 63.936 63.872V280.32a64 64 0 0 1-63.872 63.872V344.32zM704 432.384L568.256 568.192l135.68 135.872 135.872-135.744-135.744-135.936z m181.056 181.056l-135.936 135.872a64 64 0 0 1-90.368 0L522.944 613.44a63.488 63.488 0 0 1-18.688-45.056 63.488 63.488 0 0 1 18.688-45.312l135.872-135.936a63.872 63.872 0 0 1 90.368 0l135.872 135.936a63.936 63.936 0 0 1 0 90.368zM608 88.128V280.192l192 0.128 0.128-192.128-192.128-0.128z m192.128 256.064H607.872a64 64 0 0 1-63.872-63.936v-192.192a64 64 0 0 1 63.872-63.872h192.256a64 64 0 0 1 63.872 63.872V280.32a64 64 0 0 1-63.872 63.872V344.32z"  horiz-adv-x="1024" />

    
    <glyph glyph-name="add-members" unicode="&#60229;" d="M352.384 455.168V560c0 61.824 48.128 112.064 107.264 112.064 59.2 0 107.328-50.24 107.328-112.064v-104.704c0-61.824-48.128-112.128-107.264-112.128-59.2 0-107.264 50.24-107.264 112.064m176.896-374.272l-307.84 0.704v103.488c0 4.224 4.608 11.136 8.576 12.8 1.28 0.64 134.912 61.504 237.12 61.504h31.68a31.36 31.36 0 0 1 30.72 32c0 1.216-0.576 2.24-0.704 3.392 58.56 27.648 99.52 89.088 99.52 160.384V560c0 97.088-75.712 176.064-168.768 176.064-92.992 0-168.704-78.976-168.704-176.064v-104.704c0-60.16 29.12-113.344 73.344-145.152-54.208-12.864-107.136-30.72-158.08-53.248-26.368-11.072-46.208-41.92-46.208-71.744v-113.728c0-3.584 0.576-7.04 1.664-10.368 8.64-26.368 31.936-44.16 58.048-44.16H529.28a31.36 31.36 0 0 1 30.72 32 31.36 31.36 0 0 1-30.72 32M743.68 64c-67.776 0-122.88 57.408-122.88 128s55.104 128 122.88 128 122.88-57.408 122.88-128-55.104-128-122.88-128m0 320c-101.632 0-184.32-86.08-184.32-192s82.624-192 184.32-192 184.32 86.08 184.32 192-82.624 192-184.32 192m60.8-168.448h-39.296V256c0 12.416-9.6 22.4-21.504 22.4a21.952 21.952 0 0 1-21.504-22.4v-40.448h-40.576a21.952 21.952 0 0 1-21.504-22.4c0-12.416 9.6-22.4 21.504-22.4h40.576V128c0-12.416 9.6-22.4 21.504-22.4a21.952 21.952 0 0 1 21.504 22.4v42.752h39.296a21.952 21.952 0 0 1 21.504 22.4c0 12.352-9.6 22.4-21.504 22.4"  horiz-adv-x="1024" />

    


  </font>
</defs>
</svg>
